<?xml version="1.0" encoding="utf-8"?>
<!-- Generator: Adobe Illustrator 16.0.0, SVG Export Plug-In . SVG Version: 6.00 Build 0)  -->
<!DOCTYPE svg PUBLIC "-//W3C//DTD SVG 1.1//EN" "http://www.w3.org/Graphics/SVG/1.1/DTD/svg11.dtd">
<svg version="1.1"
	 id="Capa_1" xmlns:sodipodi="http://sodipodi.sourceforge.net/DTD/sodipodi-0.dtd" xmlns:inkscape="http://www.inkscape.org/namespaces/inkscape" sodipodi:docname="amigo.svg" inkscape:version="0.92.4 (5da689c313, 2019-01-14)"
	 xmlns="http://www.w3.org/2000/svg" xmlns:xlink="http://www.w3.org/1999/xlink" x="0px" y="0px" width="612px" height="792px"
	 viewBox="0 0 612 792" enable-background="new 0 0 612 792" xml:space="preserve">
<sodipodi:namedview  id="namedview4634" borderopacity="1" pagecolor="#ffffff" bordercolor="#666666" objecttolerance="10" gridtolerance="10" guidetolerance="10" showgrid="false" inkscape:zoom="1.5175781" inkscape:cx="265.88417" inkscape:cy="256" inkscape:window-height="1000" inkscape:window-x="-11" inkscape:pageopacity="0" inkscape:window-y="-11" inkscape:window-maximized="1" inkscape:pageshadow="2" inkscape:window-width="1920" inkscape:current-layer="Capa_1">
	</sodipodi:namedview>
<g id="g4583">
	<g id="g4581">
		<path id="path4579" fill="#FF8700" d="M136.507,58.303c-86.757,0-157.339,75.484-157.339,168.266
			c0,92.781,70.582,168.267,157.339,168.267s157.34-75.486,157.34-168.267C293.848,133.787,223.267,58.303,136.507,58.303z"/>
	</g>
</g>
<g id="g4601">
	<g id="g4599">
		<path id="path4597" fill="#FF8700" d="M397.503,687.202c-4.765-77.42-43.672-145.518-101.738-189.161
			c-42.241-31.758-94.635-50.556-151.389-50.556h-15.725C-11.441,447.486-125,562.027-125,703.335v30.362h523.009v-30.362
			C398.009,697.917,397.84,692.533,397.503,687.202z"/>
	</g>
</g>
<g id="g4603">
</g>
<g id="g4605">
</g>
<g id="g4607">
</g>
<g id="g4609">
</g>
<g id="g4611">
</g>
<g id="g4613">
</g>
<g id="g4615">
</g>
<g id="g4617">
</g>
<g id="g4619">
</g>
<g id="g4621">
</g>
<g id="g4623">
</g>
<g id="g4625">
</g>
<g id="g4627">
</g>
<g id="g4629">
</g>
<g id="g4631">
</g>
<g id="g862">
	<g id="g860">
		<path id="path858" fill="#FF8700" d="M536.02,133.17c-110.821,0-200.979,90.94-200.979,202.721
			c0,138.723,179.856,342.379,187.517,350.981c7.19,8.08,19.75,8.063,26.929,0C557.142,678.271,737,474.614,737,335.891
			C736.998,224.11,646.842,133.17,536.02,133.17z M536.02,437.887c-55.758,0-101.117-45.755-101.117-101.997
			c0-56.24,45.36-101.994,101.117-101.994c55.756,0,101.115,45.755,101.115,101.995C637.135,392.132,591.775,437.887,536.02,437.887
			z"/>
	</g>
</g>
</svg>
