<?xml version="1.0" encoding="utf-8"?>
<!-- Generator: Adobe Illustrator 16.0.0, SVG Export Plug-In . SVG Version: 6.00 Build 0)  -->
<!DOCTYPE svg PUBLIC "-//W3C//DTD SVG 1.1//EN" "http://www.w3.org/Graphics/SVG/1.1/DTD/svg11.dtd">
<svg version="1.1"
     id="Capa_1"
     xmlns:sodipodi="http://sodipodi.sourceforge.net/DTD/sodipodi-0.dtd"
     xmlns:inkscape="http://www.inkscape.org/namespaces/inkscape" inkscape:version="0.92.4 (5da689c313, 2019-01-14)"
     sodipodi:docname="amigo.svg"
     xmlns="http://www.w3.org/2000/svg" x="0px" y="0px" width="612px"
     height="792px"
     viewBox="0 0 612 792" enable-background="new 0 0 612 792" xml:space="preserve">
<sodipodi:namedview inkscape:cy="256" inkscape:cx="265.88417" inkscape:zoom="1.5175781" showgrid="false"
                    guidetolerance="10" gridtolerance="10" objecttolerance="10" bordercolor="#666666"
                    pagecolor="#ffffff" borderopacity="1" id="namedview4634" inkscape:current-layer="Capa_1"
                    inkscape:window-maximized="1" inkscape:window-y="-11" inkscape:window-x="-11"
                    inkscape:window-height="1000" inkscape:window-width="1920" inkscape:pageshadow="2"
                    inkscape:pageopacity="0">
	</sodipodi:namedview>
    <g id="g4583">
	<g id="g4581">
		<path id="path4579" fill="#FF8700" d="M185.664,158.303c-61.595,0-111.707,53.131-111.707,118.438S124.069,395.18,185.664,395.18
			c61.596,0,111.708-53.132,111.708-118.439S247.261,158.303,185.664,158.303z"/>
	</g>
</g>
    <g id="g4601">
	<g id="g4599">
		<path id="path4597" fill="#FF8700" d="M370.965,600.97c-3.383-54.494-31.006-102.426-72.232-133.146
			c-29.99-22.353-67.188-35.585-107.482-35.585h-11.164C80.624,432.24,0,512.863,0,612.325v21.372h371.324v-21.372
			C371.324,608.513,371.204,604.723,370.965,600.97z"/>
	</g>
</g>
    <g id="g4603">
</g>
    <g id="g4605">
</g>
    <g id="g4607">
</g>
    <g id="g4609">
</g>
    <g id="g4611">
</g>
    <g id="g4613">
</g>
    <g id="g4615">
</g>
    <g id="g4617">
</g>
    <g id="g4619">
</g>
    <g id="g4621">
</g>
    <g id="g4623">
</g>
    <g id="g4625">
</g>
    <g id="g4627">
</g>
    <g id="g4629">
</g>
    <g id="g4631">
</g>
    <g id="g862">
	<g id="g860">
		<path id="path858" fill="#FF8700" d="M469.309,211c-78.681,0-142.691,64.011-142.691,142.691
			c0,97.644,127.694,240.992,133.132,247.046c5.105,5.688,14.022,5.677,19.119,0C484.305,594.683,612,451.335,612,353.691
			C611.998,275.011,547.989,211,469.309,211z M469.309,425.482c-39.587,0-71.791-32.205-71.791-71.792
			c0-39.586,32.205-71.791,71.791-71.791s71.789,32.206,71.789,71.792C541.098,393.278,508.895,425.482,469.309,425.482z"/>
	</g>
</g>
</svg>
